<svg xmlns="http://www.w3.org/2000/svg" width="240" height="60" viewBox="0 0 240 60" fill="none">
  <defs>
    <linearGradient id="wmCard" x1="6" y1="14" x2="54" y2="50" gradientUnits="userSpaceOnUse">
      <stop stop-color="#1B3A82"/>
      <stop offset="0.55" stop-color="#0E2156"/>
      <stop offset="1" stop-color="#06112E"/>
    </linearGradient>
    <linearGradient id="wmSail" x1="18" y1="6" x2="50" y2="52" gradientUnits="userSpaceOnUse">
      <stop stop-color="#5BE3FF"/>
      <stop offset="0.5" stop-color="#2BA8FF"/>
      <stop offset="1" stop-color="#1366F0"/>
    </linearGradient>
    <linearGradient id="wmHull" x1="12" y1="46" x2="50" y2="52" gradientUnits="userSpaceOnUse">
      <stop stop-color="#3FB7FF"/>
      <stop offset="1" stop-color="#1A6FE6"/>
    </linearGradient>
    <linearGradient id="wmVela" x1="138" y1="20" x2="226" y2="46" gradientUnits="userSpaceOnUse">
      <stop stop-color="#5BE3FF"/>
      <stop offset="1" stop-color="#2D8CFF"/>
    </linearGradient>
  </defs>
  <rect x="4" y="16" width="52" height="32" rx="5" fill="url(#wmCard)"/>
  <g stroke="#3DD2FF" stroke-width="1" stroke-linecap="round" fill="none" opacity="0.8">
    <path d="M4 24 H 16 L 20 28 H 28"/>
    <path d="M4 32 H 12 L 16 36 H 24"/>
    <path d="M4 40 H 20"/>
  </g>
  <circle cx="16" cy="28" r="1.5" fill="#5BEAFF"/>
  <circle cx="12" cy="36" r="1.5" fill="#5BEAFF"/>
  <path d="M36 6 L 39 44 L 19 38 Z" fill="url(#wmSail)"/>
  <path d="M39 44 L 19 38 L 22 42 L 39 44 Z" fill="#1F6BD6" opacity="0.55"/>
  <path d="M14 48 Q 31 54 50 46 L 48 50 Q 31 56 16 52 Z" fill="url(#wmHull)"/>
  <text x="72" y="40" fill="#EAF4FF" font-family="Inter, Segoe UI, Arial, sans-serif" font-size="28" font-weight="700" letter-spacing="-0.8">Card</text>
  <text x="133" y="40" fill="url(#wmVela)" font-family="Inter, Segoe UI, Arial, sans-serif" font-size="28" font-weight="700" letter-spacing="-0.8">Vela</text>
</svg>
