<svg xmlns="http://www.w3.org/2000/svg" width="64" height="64" viewBox="0 0 64 64" fill="none">
  <defs>
    <linearGradient id="cvCard" x1="8" y1="14" x2="56" y2="50" gradientUnits="userSpaceOnUse">
      <stop stop-color="#1B3A82"/>
      <stop offset="0.55" stop-color="#0E2156"/>
      <stop offset="1" stop-color="#06112E"/>
    </linearGradient>
    <linearGradient id="cvSail" x1="20" y1="8" x2="50" y2="52" gradientUnits="userSpaceOnUse">
      <stop stop-color="#5BE3FF"/>
      <stop offset="0.5" stop-color="#2BA8FF"/>
      <stop offset="1" stop-color="#1366F0"/>
    </linearGradient>
    <linearGradient id="cvHull" x1="14" y1="48" x2="50" y2="52" gradientUnits="userSpaceOnUse">
      <stop stop-color="#3FB7FF"/>
      <stop offset="1" stop-color="#1A6FE6"/>
    </linearGradient>
    <filter id="cvGlow" x="-20%" y="-20%" width="140%" height="140%">
      <feGaussianBlur stdDeviation="0.8" result="b"/>
      <feMerge><feMergeNode in="b"/><feMergeNode in="SourceGraphic"/></feMerge>
    </filter>
  </defs>
  <rect x="6" y="18" width="52" height="32" rx="5" fill="url(#cvCard)"/>
  <g stroke="#3DD2FF" stroke-width="1" stroke-linecap="round" fill="none" opacity="0.85">
    <path d="M6 26 H 18 L 22 30 H 30"/>
    <path d="M6 34 H 14 L 18 38 H 26"/>
    <path d="M6 42 H 22"/>
  </g>
  <circle cx="18" cy="30" r="1.6" fill="#5BEAFF" filter="url(#cvGlow)"/>
  <circle cx="14" cy="38" r="1.6" fill="#5BEAFF" filter="url(#cvGlow)"/>
  <path d="M38 8 L 41 46 L 21 40 Z" fill="url(#cvSail)"/>
  <path d="M41 46 L 21 40 L 24 44 L 41 46 Z" fill="#1F6BD6" opacity="0.55"/>
  <path d="M16 50 Q 33 56 52 48 L 50 52 Q 33 58 18 54 Z" fill="url(#cvHull)"/>
</svg>
