<svg xmlns="http://www.w3.org/2000/svg" width="64" height="64" viewBox="0 0 64 64" fill="none"><defs><linearGradient id="favBg" x1="10" y1="7" x2="56" y2="58" gradientUnits="userSpaceOnUse"><stop stop-color="#16326C"/><stop offset="0.54" stop-color="#0E1E4A"/><stop offset="1" stop-color="#07132D"/></linearGradient><linearGradient id="favSail" x1="18" y1="12" x2="51" y2="51" gradientUnits="userSpaceOnUse"><stop stop-color="#38E0FF"/><stop offset="0.48" stop-color="#23AFFF"/><stop offset="1" stop-color="#1478FF"/></linearGradient></defs><rect x="6" y="6" width="52" height="52" rx="16" fill="url(#favBg)"/><path d="M12.8 21H23.2C25 21 26.2 21.8 27.4 23.1L30.2 26C31.4 27.3 32.7 28 34.5 28H46.5" stroke="#2EDBFF" stroke-width="1.4" stroke-linecap="round" opacity="0.52"/><path d="M11.8 34H25.2C27.3 34 28.7 34.9 30 36.6L32.2 39.4C33.5 41.1 34.9 42 37.1 42H51" stroke="#2EDBFF" stroke-width="1.4" stroke-linecap="round" opacity="0.42"/><circle cx="23" cy="21" r="2" fill="#3FE6FF" opacity="0.82"/><circle cx="25" cy="34" r="2" fill="#3FE6FF" opacity="0.82"/><path d="M23 14.5C35.4 22.6 42.8 33 48.2 47C39.2 44.6 30.8 40.4 24 34.6C21.1 32.1 18.8 29.2 17.2 26.4C20.9 27.2 24.6 28.5 27.8 30L23 14.5Z" fill="url(#favSail)"/><path d="M15.7 46.2C25.4 38.4 35.2 33.3 48.2 29.5C42.3 38 34.1 44.8 20.8 51L15.7 46.2Z" fill="url(#favSail)" opacity="0.96"/></svg>
